<svg xmlns="http://www.w3.org/2000/svg" xmlns:xlink="http://www.w3.org/1999/xlink" viewBox="0 0 506.83 509.67"><defs><style>.cls-1,.cls-3,.cls-5{fill:none;}.cls-2{clip-path:url(#clip-path);}.cls-3,.cls-4,.cls-5{stroke:#000;stroke-miterlimit:10;}.cls-3{stroke-width:6px;}.cls-4{fill:#fff;}.cls-4,.cls-5{stroke-width:5px;}.cls-6{font-size:40px;font-family:Arial-BoldMT, Arial;font-weight:700;}</style><clipPath id="clip-path"><rect class="cls-1" x="69.93" y="-43.67" width="344.98" height="588.58" transform="translate(-8.2 493.05) rotate(-90)"/></clipPath></defs><title>organ_logo</title><g id="Layer_3" data-name="Layer 3"><g class="cls-2"><circle class="cls-3" cx="254.14" cy="253.54" r="246.9"/></g></g><g id="Layer_2" data-name="Layer 2"><path class="cls-4" d="M256.68,402l1.15,21.07c-18.66-4.22-38.66,6.89-38.66,6.89l-6.75-55.93,26.22,6.76Z"/><path class="cls-4" d="M308.83,147.18s-4.76-23.69-25.53-29.8l-48,25.49,11,38.46,62.5-32"/><path class="cls-4" d="M141,190.48,108.5,157s13.52-8,16.26-26.67L152,158.78S139.7,181.13,141,190.48Z"/><path class="cls-4" d="M220.7,123.26l-2.12-.12c-37.52-1.67-70.08,25.34-76.79,62.29-7.73,42.53,17,72.46,17,72.46l72.08-96.31Z"/><path class="cls-4" d="M249.68,108.91s-70.6,23.67-80.39,89.42l86.54,46Z"/><path class="cls-4" d="M302.5,105.33s-34.67,17-46,42.67c0,0,50.85-18.44,87.58,21.42a65.59,65.59,0,0,1,13.79,23.47c10.44,30.82,34.31,121.31-13.47,196.8a31.66,31.66,0,0,1-18.54,13.62c-28.21,7.58-99.83,16.15-144-73.31,0,0-74.33-128.67,40-174.67,0,0,20.59-61.53,70-71.66C291.83,83.67,290.08,99.67,302.5,105.33Z"/><path class="cls-5" d="M180.83,267.33s19.5,88,84.78,110.68"/><path class="cls-5" d="M277.83,168.33s60,1,62,60"/><path class="cls-4" d="M258.07,425.67c8,5.8-21.42,10.6-21.42,10.6-14.13,1.31-17.44-3.67-17.44-3.67s-1.32-4.84,13.59-8.15c1.41-.32,2.81-.67,4.19-1.07C241.65,422,253.57,422.41,258.07,425.67Z"/><path class="cls-4" d="M122.79,127.43c-3.1-3.67-11.62,10.24-11.62,10.24-9,13.33-4.14,18-4.14,18s3.89,1.08,11.35-8.6C118.38,147,128.72,134.47,122.79,127.43Z"/><path class="cls-4" d="M306.05,104.22c2.78-2.55-3-13.57-3-13.57-4.43-8.75-9.46-7.17-9.46-7.17s-3.79,4.6,0,12.39C293.62,95.87,300.4,109.42,306.05,104.22Z"/><path class="cls-4" d="M191.38,127.08l-8.92-39a29.5,29.5,0,0,1-27.88,5.25l10.52,49.54S184.43,129.11,191.38,127.08Z"/><path class="cls-4" d="M182.08,85.22c1.19-4-14.75-1.55-14.75-1.55-10,1.48-14.11,7.15-14.11,7.15s-1.48,7.06,16.07,3.45C169.29,94.27,180,92.31,182.08,85.22Z"/></g><g id="Layer_4" data-name="Layer 4"><text class="cls-6" transform="matrix(0.81, -0.59, 0.59, 0.81, 118.3, 80.17)">E</text><text class="cls-6" transform="matrix(0.89, -0.46, 0.46, 0.89, 142.42, 62.82)">N</text><text class="cls-6" transform="matrix(0.95, -0.31, 0.31, 0.95, 170.76, 48.32)">G</text><text class="cls-6" transform="matrix(0.98, -0.2, 0.2, 0.98, 203.56, 38.32)">I</text><text class="cls-6" transform="matrix(1, -0.09, 0.09, 1, 217.59, 35.14)">N</text><text class="cls-6" transform="matrix(1, 0.07, -0.07, 1, 249.42, 32.72)">E</text><text class="cls-6" transform="matrix(0.98, 0.21, -0.21, 0.98, 279.05, 34.9)">E</text><text class="cls-6" transform="matrix(0.94, 0.35, -0.35, 0.94, 308.07, 41.27)">R</text><text class="cls-6" transform="matrix(0.87, 0.49, -0.49, 0.87, 337.8, 52.82)">E</text><text class="cls-6" transform="matrix(0.79, 0.61, -0.61, 0.79, 363.64, 67.46)">D</text></g><g id="Layer_5" data-name="Layer 5"><text class="cls-6" transform="matrix(0.79, 0.62, -0.61, 0.79, 87.93, 444.43)">V</text><text class="cls-6" transform="matrix(0.84, 0.53, -0.53, 0.85, 114.21, 464.06)">I</text><text class="cls-6" transform="matrix(0.89, 0.45, -0.45, 0.89, 128.67, 473.24)">T</text><text class="cls-6" transform="matrix(0.94, 0.34, -0.35, 0.94, 153.78, 485.93)">A</text><text class="cls-6" transform="matrix(0.98, 0.22, -0.22, 0.98, 187.61, 497.71)">L</text><text class="cls-6" transform="matrix(0.99, 0.13, -0.13, 0.99, 216.64, 503.68)"> </text><text class="cls-6" transform="matrix(1, 0.03, -0.02, 1, 233.92, 506.16)">O</text><text class="cls-6" transform="matrix(0.99, -0.12, 0.12, 0.99, 272.36, 506.51)">R</text><text class="cls-6" transform="matrix(0.97, -0.26, 0.26, 0.96, 308.25, 501.74)">G</text><text class="cls-6" transform="matrix(0.92, -0.4, 0.4, 0.92, 345.17, 491.07)">A</text><text class="cls-6" transform="matrix(0.85, -0.53, 0.52, 0.85, 378.03, 476.18)">N</text><text class="cls-6" transform="matrix(0.77, -0.64, 0.63, 0.77, 408.34, 456.81)">S</text></g></svg>